<?xml version="1.0" ?><!DOCTYPE svg  PUBLIC '-//W3C//DTD SVG 1.1//EN'  'http://www.w3.org/Graphics/SVG/1.1/DTD/svg11.dtd'><svg enable-background="new 0 0 24 24" height="24px" id="Layer_1" version="1.1" viewBox="0 0 24 24" width="24px" xml:space="preserve" xmlns="http://www.w3.org/2000/svg" xmlns:xlink="http://www.w3.org/1999/xlink"><path d="M20,16c-0.8,0-1.5,0.2-2.1,0.6l-4-4C14,12.4,14,12.2,14,12c0-0.2,0-0.3-0.1-0.5c2.6-2.6,5.2-5.2,6.3-6.3  C22.7,2.7,22.6,0,22.6,0L12.5,10.1C12.3,10,12.2,10,12,10c-0.2,0-0.4,0-0.6,0.1L1.4,0c0,0-0.1,2.7,2.9,5.7c1,1,3.4,3.4,5.8,5.8  c0,0.1-0.1,0.3-0.1,0.5c0,0.2,0,0.3,0.1,0.5L6,16.6C5.4,16.2,4.7,16,4,16c-2.2,0-4,1.8-4,4s1.8,4,4,4s4-1.8,4-4c0-0.7-0.2-1.4-0.6-2  c0.9-0.9,2.4-2.4,4.1-4.1c0.2,0,0.3,0.1,0.5,0.1c0.2,0,0.3,0,0.5-0.1c1.7,1.7,3.2,3.2,4.1,4.1c-0.3,0.6-0.5,1.3-0.5,2  c0,2.2,1.8,4,4,4s4-1.8,4-4S22.2,16,20,16z M13,12c0,0.6-0.4,1-1,1s-1-0.4-1-1s0.4-1,1-1S13,11.4,13,12z M4,22c-1.1,0-2-0.9-2-2  s0.9-2,2-2s2,0.9,2,2S5.1,22,4,22z M20,22c-1.1,0-2-0.9-2-2s0.9-2,2-2s2,0.9,2,2S21.1,22,20,22z"/></svg>